<svg width="4018" height="3106" xmlns="http://www.w3.org/2000/svg" xmlns:xlink="http://www.w3.org/1999/xlink" xml:space="preserve" overflow="hidden"><g transform="translate(-191 -21)"><path d="M1275.11 21.1146 3124.89 21.1146 3124.89 716.885 1275.11 716.885ZM1282.37 709.628 3117.63 709.628 3117.63 28.3715 1282.37 28.3715ZM1289.63 35.6284 3110.37 35.6284 3110.37 702.372 1289.63 702.372ZM1296.89 695.115 3103.11 695.115 3103.11 42.8854 1296.89 42.8854Z"/><rect x="1344.5" y="229.5" width="1712" height="188" stroke="#000000" stroke-width="6.875" stroke-miterlimit="8" fill="none"/><text font-family="DengXian,DengXian_MSFontService,sans-serif" font-weight="700" font-size="73" transform="matrix(1 0 0 1 1581.2 348)">数据源获取</text><text font-family="DengXian,DengXian_MSFontService,sans-serif" font-weight="700" font-size="73" transform="matrix(1 0 0 1 1947.87 348)">: </text><text font-family="DengXian,DengXian_MSFontService,sans-serif" font-weight="400" font-size="69" transform="matrix(1 0 0 1 1985.68 348)">搜集材料科学分类下的文献</text><rect x="1344.5" y="482.5" width="1712" height="188" stroke="#000000" stroke-width="6.875" stroke-miterlimit="8" fill="none"/><text font-family="DengXian,DengXian_MSFontService,sans-serif" font-weight="700" font-size="73" transform="matrix(1 0 0 1 1451.77 555)">工具链开发</text><text font-family="DengXian,DengXian_MSFontService,sans-serif" font-weight="700" font-size="73" transform="matrix(1 0 0 1 1818.44 555)">: </text><text font-family="DengXian,DengXian_MSFontService,sans-serif" font-weight="400" font-size="73" transform="matrix(1 0 0 1 1856.25 555)">使用</text><text font-family="DengXian,DengXian_MSFontService,sans-serif" font-weight="400" font-size="73" transform="matrix(1 0 0 1 2002.92 555)">LangChain</text><text font-family="DengXian,DengXian_MSFontService,sans-serif" font-weight="400" font-size="73" transform="matrix(1 0 0 1 2354.69 555)">或</text><text font-family="DengXian,DengXian_MSFontService,sans-serif" font-weight="400" font-size="73" transform="matrix(1 0 0 1 2448.07 555)">AutoGen</text><text font-family="DengXian,DengXian_MSFontService,sans-serif" font-weight="400" font-size="73" transform="matrix(1 0 0 1 2728.23 555)">框架，</text><text font-family="DengXian,DengXian_MSFontService,sans-serif" font-weight="400" font-size="73" transform="matrix(1 0 0 1 1595 643)">集成</text><text font-family="DengXian,DengXian_MSFontService,sans-serif" font-weight="400" font-size="73" transform="matrix(1 0 0 1 1741.67 643)">PyMuPDF</text><text font-family="DengXian,DengXian_MSFontService,sans-serif" font-weight="400" font-size="73" transform="matrix(1 0 0 1 2047.03 643)">、</text><text font-family="DengXian,DengXian_MSFontService,sans-serif" font-weight="400" font-size="73" transform="matrix(1 0 0 1 2120.36 643)">Computer Vision API</text><text font-family="DengXian,DengXian_MSFontService,sans-serif" font-weight="700" font-size="83" transform="matrix(1 0 0 1 1734.32 157)">第一阶段：数据引擎构建</text><path d="M2204.01 417 2204.01 447.939 2195.99 447.939 2195.99 417ZM2213.75 443.355 2200 470.855 2186.25 443.355Z"/><rect x="1618.5" y="771.5" width="1164" height="156" stroke="#000000" stroke-width="6.875" stroke-miterlimit="8" fill="none"/><text font-family="DengXian,DengXian_MSFontService,sans-serif" font-weight="700" font-size="73" transform="matrix(1 0 0 1 1862.03 872)">产出</text><text font-family="DengXian,DengXian_MSFontService,sans-serif" font-weight="700" font-size="73" transform="matrix(1 0 0 1 2008.69 872)">: </text><text font-family="DengXian,DengXian_MSFontService,sans-serif" font-weight="400" font-size="69" transform="matrix(1 0 0 1 2046.51 872)">原始图文语料库</text><path d="M3.4375-7.58751e-05 3.43844 42.4838-3.43656 42.484-3.4375 7.58751e-05ZM13.7508 37.9003 0.00144357 65.4006-13.7492 37.9009Z" transform="matrix(-1 0 0 1 2200.5 706.5)"/><path d="M2203.67 911.5 2203.67 1092 1173.5 1092 1176.94 1088.56 1176.94 1242.71 1170.06 1242.71 1170.06 1085.12 2200.24 1085.12 2196.8 1088.56 2196.8 911.5ZM1187.25 1238.12 1173.5 1265.62 1159.75 1238.12Z"/><path d="M0-3.4375 179.419-3.4375 179.419 1026.74 175.981 1023.3 329.046 1023.3 329.046 1030.18 172.544 1030.18 172.544 0 175.981 3.4375 0 3.4375ZM324.463 1012.99 351.963 1026.74 324.463 1040.49Z" transform="matrix(1.83697e-16 1 1 -1.83697e-16 2200.5 911.5)"/><path d="M191.115 1254.11 2154.89 1254.11 2154.89 2104.89 191.115 2104.89ZM198.372 2097.63 2147.63 2097.63 2147.63 1261.37 198.372 1261.37ZM205.629 1268.63 2140.37 1268.63 2140.37 2090.37 205.629 2090.37ZM212.886 2083.11 2133.11 2083.11 2133.11 1275.89 212.886 1275.89Z"/><text font-family="DengXian,DengXian_MSFontService,sans-serif" font-weight="700" font-size="73" transform="matrix(1 0 0 1 287.391 1561)">生成策略</text><text font-family="DengXian,DengXian_MSFontService,sans-serif" font-weight="700" font-size="73" transform="matrix(1 0 0 1 580.725 1561)">:</text><text font-family="DengXian,DengXian_MSFontService,sans-serif" font-weight="400" font-size="73" transform="matrix(1 0 0 1 598.485 1561)">设计</text><text font-family="DengXian,DengXian_MSFontService,sans-serif" font-weight="400" font-size="73" transform="matrix(1 0 0 1 745.152 1561)">prompt</text><text font-family="DengXian,DengXian_MSFontService,sans-serif" font-weight="400" font-size="73" transform="matrix(1 0 0 1 980.62 1561)">，让</text><text font-family="DengXian,DengXian_MSFontService,sans-serif" font-weight="400" font-size="73" transform="matrix(1 0 0 1 1127.29 1561)">Qwen3</text><text font-family="DengXian,DengXian_MSFontService,sans-serif" font-weight="400" font-size="73" transform="matrix(1 0 0 1 1350.72 1561)">-</text><text font-family="DengXian,DengXian_MSFontService,sans-serif" font-weight="400" font-size="73" transform="matrix(1 0 0 1 1387.39 1561)">VL</text><text font-family="DengXian,DengXian_MSFontService,sans-serif" font-weight="400" font-size="73" transform="matrix(1 0 0 1 1465.88 1561)">扮演“材料科学家”，</text><text font-family="DengXian,DengXian_MSFontService,sans-serif" font-weight="400" font-size="73" transform="matrix(1 0 0 1 287.391 1649)">针对图片生成</text><text font-family="DengXian,DengXian_MSFontService,sans-serif" font-weight="400" font-size="73" transform="matrix(1 0 0 1 727.391 1649)">SPP(</text><text font-family="DengXian,DengXian_MSFontService,sans-serif" font-weight="400" font-size="73" transform="matrix(1 0 0 1 867.756 1649)">结构</text><text font-family="DengXian,DengXian_MSFontService,sans-serif" font-weight="400" font-size="73" transform="matrix(1 0 0 1 1014.42 1649)">-</text><text font-family="DengXian,DengXian_MSFontService,sans-serif" font-weight="400" font-size="73" transform="matrix(1 0 0 1 1051.09 1649)">属性</text><text font-family="DengXian,DengXian_MSFontService,sans-serif" font-weight="400" font-size="73" transform="matrix(1 0 0 1 1197.76 1649)">-</text><text font-family="DengXian,DengXian_MSFontService,sans-serif" font-weight="400" font-size="73" transform="matrix(1 0 0 1 1234.42 1649)">性能</text><text font-family="DengXian,DengXian_MSFontService,sans-serif" font-weight="400" font-size="73" transform="matrix(1 0 0 1 1381.09 1649)">)</text><text font-family="DengXian,DengXian_MSFontService,sans-serif" font-weight="400" font-size="73" transform="matrix(1 0 0 1 1402.29 1649)">相关的复杂问答</text><text font-family="DengXian,DengXian_MSFontService,sans-serif" font-weight="700" font-size="73" transform="matrix(1 0 0 1 287.391 1871)">质量控制</text><text font-family="DengXian,DengXian_MSFontService,sans-serif" font-weight="700" font-size="73" transform="matrix(1 0 0 1 580.725 1871)">:</text><text font-family="DengXian,DengXian_MSFontService,sans-serif" font-weight="400" font-size="73" transform="matrix(1 0 0 1 598.485 1871)">设计“反思”机制，让模型自我检查生成的推理</text><text font-family="DengXian,DengXian_MSFontService,sans-serif" font-weight="400" font-size="73" transform="matrix(1 0 0 1 287.391 1959)">步骤是否符合科学常识</text><rect x="254.5" y="1460.5" width="1828" height="252" stroke="#000000" stroke-width="6.875" stroke-miterlimit="8" fill="none"/><rect x="254.5" y="1766.5" width="1828" height="252" stroke="#000000" stroke-width="6.875" stroke-miterlimit="8" fill="none"/><text font-family="DengXian,DengXian_MSFontService,sans-serif" font-weight="700" font-size="83" transform="matrix(1 0 0 1 614.111 1397)">第二阶段：思维链生成与质检</text><path d="M1171.94 1712.5 1171.94 1743.3 1165.06 1743.3 1165.06 1712.5ZM1182.25 1738.72 1168.5 1766.22 1154.75 1738.72Z"/><path d="M2245.11 1252.11 4208.89 1252.11 4208.89 2102.89 2245.11 2102.89ZM2252.37 2095.63 4201.63 2095.63 4201.63 1259.37 2252.37 1259.37ZM2259.63 1266.63 4194.37 1266.63 4194.37 2088.37 2259.63 2088.37ZM2266.89 2081.11 4187.11 2081.11 4187.11 1273.89 2266.89 1273.89Z"/><text font-family="DengXian,DengXian_MSFontService,sans-serif" font-weight="700" font-size="83" transform="matrix(1 0 0 1 2346.13 1603)">模型选择</text><text font-family="DengXian,DengXian_MSFontService,sans-serif" font-weight="700" font-size="83" transform="matrix(1 0 0 1 2676.13 1603)">:</text><text font-family="DengXian,DengXian_MSFontService,sans-serif" font-weight="400" font-size="83" transform="matrix(1 0 0 1 2696.18 1603)">选择</text><text font-family="DengXian,DengXian_MSFontService,sans-serif" font-weight="400" font-size="83" transform="matrix(1 0 0 1 2861.18 1603)">Qwen3</text><text font-family="DengXian,DengXian_MSFontService,sans-serif" font-weight="400" font-size="83" transform="matrix(1 0 0 1 3112.69 1603)">-</text><text font-family="DengXian,DengXian_MSFontService,sans-serif" font-weight="400" font-size="83" transform="matrix(1 0 0 1 3153.94 1603)">VL</text><text font-family="DengXian,DengXian_MSFontService,sans-serif" font-weight="400" font-size="83" transform="matrix(1 0 0 1 3242.74 1603)">或者</text><text font-family="DengXian,DengXian_MSFontService,sans-serif" font-weight="400" font-size="83" transform="matrix(1 0 0 1 3407.74 1603)">LLaVA</text><text font-family="DengXian,DengXian_MSFontService,sans-serif" font-weight="400" font-size="83" transform="matrix(1 0 0 1 3628.89 1603)">作为基座</text><text font-family="DengXian,DengXian_MSFontService,sans-serif" font-weight="700" font-size="83" transform="matrix(1 0 0 1 2358.14 1911)">微调策略</text><text font-family="DengXian,DengXian_MSFontService,sans-serif" font-weight="700" font-size="83" transform="matrix(1 0 0 1 2688.14 1911)">:</text><text font-family="DengXian,DengXian_MSFontService,sans-serif" font-weight="400" font-size="83" transform="matrix(1 0 0 1 2708.19 1911)">使用</text><text font-family="DengXian,DengXian_MSFontService,sans-serif" font-weight="400" font-size="83" transform="matrix(1 0 0 1 2873.19 1911)">Q</text><text font-family="DengXian,DengXian_MSFontService,sans-serif" font-weight="400" font-size="83" transform="matrix(1 0 0 1 2935.64 1911)">-</text><text font-family="DengXian,DengXian_MSFontService,sans-serif" font-weight="400" font-size="83" transform="matrix(1 0 0 1 2976.89 1911)">LoRA</text><text font-family="DengXian,DengXian_MSFontService,sans-serif" font-weight="400" font-size="83" transform="matrix(1 0 0 1 3163.09 1911)">进行低显存高效微调</text><rect x="2308.5" y="1457.5" width="1827" height="253" stroke="#000000" stroke-width="6.875" stroke-miterlimit="8" fill="none"/><rect x="2308.5" y="1764.5" width="1827" height="252" stroke="#000000" stroke-width="6.875" stroke-miterlimit="8" fill="none"/><text font-family="DengXian,DengXian_MSFontService,sans-serif" font-weight="700" font-size="83" transform="matrix(1 0 0 1 2667.59 1395)">第三阶段</text><text font-family="DengXian,DengXian_MSFontService,sans-serif" font-weight="700" font-size="83" transform="matrix(1 0 0 1 2997.59 1395)">(</text><text font-family="DengXian,DengXian_MSFontService,sans-serif" font-weight="700" font-size="83" transform="matrix(1 0 0 1 3025.09 1395)">上</text><text font-family="DengXian,DengXian_MSFontService,sans-serif" font-weight="700" font-size="83" transform="matrix(1 0 0 1 3107.59 1395)">)</text><text font-family="DengXian,DengXian_MSFontService,sans-serif" font-weight="700" font-size="83" transform="matrix(1 0 0 1 3135.09 1395)">：模型准备与策略</text><path d="M3224.94 1710.5 3224.94 1741.3 3218.06 1741.3 3218.06 1710.5ZM3235.25 1736.72 3221.5 1764.22 3207.75 1736.72Z"/><path d="M1218.11 2276.11 3181.89 2276.11 3181.89 3126.89 1218.11 3126.89ZM1225.37 3119.63 3174.63 3119.63 3174.63 2283.37 1225.37 2283.37ZM1232.63 2290.63 3167.37 2290.63 3167.37 3112.37 1232.63 3112.37ZM1239.89 3105.11 3160.11 3105.11 3160.11 2297.89 1239.89 2297.89Z"/><text font-family="DengXian,DengXian_MSFontService,sans-serif" font-weight="700" font-size="83" transform="matrix(1 0 0 1 1319.39 2627)">训练</text><text font-family="DengXian,DengXian_MSFontService,sans-serif" font-weight="700" font-size="83" transform="matrix(1 0 0 1 1484.39 2627)">:</text><text font-family="DengXian,DengXian_MSFontService,sans-serif" font-weight="400" font-size="83" transform="matrix(1 0 0 1 1504.44 2627)">基于高质量</text><text font-family="DengXian,DengXian_MSFontService,sans-serif" font-weight="400" font-size="83" transform="matrix(1 0 0 1 1916.94 2627)">CoT</text><text font-family="DengXian,DengXian_MSFontService,sans-serif" font-weight="400" font-size="83" transform="matrix(1 0 0 1 2058.45 2627)">和微调策略进行模型训练</text><text font-family="DengXian,DengXian_MSFontService,sans-serif" font-weight="700" font-size="73" transform="matrix(1 0 0 1 1331.4 2908)">评估体系</text><text font-family="DengXian,DengXian_MSFontService,sans-serif" font-weight="700" font-size="73" transform="matrix(1 0 0 1 1624.73 2908)">:</text><text font-family="DengXian,DengXian_MSFontService,sans-serif" font-weight="400" font-size="73" transform="matrix(1 0 0 1 1642.49 2908)">在</text><text font-family="DengXian,DengXian_MSFontService,sans-serif" font-weight="400" font-size="73" transform="matrix(1 0 0 1 1715.82 2908)">MatVQA</text><text font-family="DengXian,DengXian_MSFontService,sans-serif" font-weight="400" font-size="73" transform="matrix(1 0 0 1 1986.24 2908)">测试集上进行</text><text font-family="DengXian,DengXian_MSFontService,sans-serif" font-weight="400" font-size="73" transform="matrix(1 0 0 1 2426.24 2908)">Zero</text><text font-family="DengXian,DengXian_MSFontService,sans-serif" font-weight="400" font-size="73" transform="matrix(1 0 0 1 2572.33 2908)">-</text><text font-family="DengXian,DengXian_MSFontService,sans-serif" font-weight="400" font-size="73" transform="matrix(1 0 0 1 2609 2908)">shot</text><text font-family="DengXian,DengXian_MSFontService,sans-serif" font-weight="400" font-size="73" transform="matrix(1 0 0 1 2744.21 2908)">和</text><text font-family="DengXian,DengXian_MSFontService,sans-serif" font-weight="400" font-size="73" transform="matrix(1 0 0 1 2817.54 2908)">Fine</text><text font-family="DengXian,DengXian_MSFontService,sans-serif" font-weight="400" font-size="73" transform="matrix(1 0 0 1 2947.02 2908)">-</text><text font-family="DengXian,DengXian_MSFontService,sans-serif" font-weight="400" font-size="73" transform="matrix(1 0 0 1 1331.4 2996)">tuned</text><text font-family="DengXian,DengXian_MSFontService,sans-serif" font-weight="400" font-size="73" transform="matrix(1 0 0 1 1515.88 2996)">性能对比，重点评估因果推理和对比分析能力</text><rect x="1281.5" y="2481.5" width="1827" height="253" stroke="#000000" stroke-width="6.875" stroke-miterlimit="8" fill="none"/><rect x="1281.5" y="2788.5" width="1827" height="252" stroke="#000000" stroke-width="6.875" stroke-miterlimit="8" fill="none"/><text font-family="DengXian,DengXian_MSFontService,sans-serif" font-weight="700" font-size="83" transform="matrix(1 0 0 1 1579.57 2419)">第三阶段</text><text font-family="DengXian,DengXian_MSFontService,sans-serif" font-weight="700" font-size="83" transform="matrix(1 0 0 1 1909.57 2419)">(</text><text font-family="DengXian,DengXian_MSFontService,sans-serif" font-weight="700" font-size="83" transform="matrix(1 0 0 1 1937.07 2419)">下</text><text font-family="DengXian,DengXian_MSFontService,sans-serif" font-weight="700" font-size="83" transform="matrix(1 0 0 1 2019.57 2419)">)</text><text font-family="DengXian,DengXian_MSFontService,sans-serif" font-weight="700" font-size="83" transform="matrix(1 0 0 1 2047.07 2419)">：模型训练与最终评估</text><path d="M2198.94 2734.5 2198.94 2765.3 2192.06 2765.3 2192.06 2734.5ZM2209.25 2760.72 2195.5 2788.22 2181.75 2760.72Z"/><path d="M0-3.4375 99.7389-3.4375 99.7389 1026.74 96.3014 1023.3 169.686 1023.3 169.686 1030.17 92.8639 1030.17 92.8639 0 96.3014 3.4375 0 3.4375ZM165.103 1012.99 192.603 1026.74 165.103 1040.49Z" transform="matrix(1.83697e-16 1 1 -1.83697e-16 1173.5 2094.5)"/><path d="M3230.68 2092.5 3230.68 2193.32 2200.5 2193.32 2203.94 2189.88 2203.94 2264.35 2197.06 2264.35 2197.06 2186.45 3227.24 2186.45 3223.8 2189.88 3223.8 2092.5ZM2214.25 2259.76 2200.5 2287.26 2186.75 2259.76Z"/></g></svg>